<mxfile host="65bd71144e">
    <diagram name="Page-1" id="vmaqWYlfpBfmoXSMpjq0">
        <mxGraphModel dx="309" dy="225" grid="1" gridSize="10" guides="1" tooltips="1" connect="1" arrows="1" fold="1" page="1" pageScale="1" pageWidth="2336" pageHeight="1654" math="0" shadow="0">
            <root>
                <mxCell id="0"/>
                <mxCell id="1" parent="0"/>
                <mxCell id="RJLhyDWeyRnSUKUD2GIx-3" value="WeekendsRestriction" style="text;html=1;align=right;verticalAlign=middle;whiteSpace=wrap;rounded=0;spacingRight=10;" parent="1" vertex="1">
                    <mxGeometry x="120" y="120" width="160" height="40" as="geometry"/>
                </mxCell>
                <mxCell id="RJLhyDWeyRnSUKUD2GIx-4" value="" style="rounded=0;whiteSpace=wrap;html=1;fillColor=#0050ef;fontColor=#ffffff;strokeColor=#001DBC;" parent="1" vertex="1">
                    <mxGeometry x="280" y="120" width="10" height="40" as="geometry"/>
                </mxCell>
                <mxCell id="RJLhyDWeyRnSUKUD2GIx-5" value="" style="rounded=0;whiteSpace=wrap;html=1;fillColor=#0050ef;fontColor=#ffffff;strokeColor=#001DBC;" parent="1" vertex="1">
                    <mxGeometry x="340" y="120" width="20" height="40" as="geometry"/>
                </mxCell>
                <mxCell id="RJLhyDWeyRnSUKUD2GIx-6" value="" style="rounded=0;whiteSpace=wrap;html=1;fillColor=#0050ef;fontColor=#ffffff;strokeColor=#001DBC;" parent="1" vertex="1">
                    <mxGeometry x="410" y="120" width="20" height="40" as="geometry"/>
                </mxCell>
                <mxCell id="RJLhyDWeyRnSUKUD2GIx-7" value="" style="rounded=0;whiteSpace=wrap;html=1;fillColor=#0050ef;fontColor=#ffffff;strokeColor=#001DBC;" parent="1" vertex="1">
                    <mxGeometry x="480" y="120" width="20" height="40" as="geometry"/>
                </mxCell>
                <mxCell id="RJLhyDWeyRnSUKUD2GIx-8" value="" style="rounded=0;whiteSpace=wrap;html=1;fillColor=#0050ef;fontColor=#ffffff;strokeColor=#001DBC;" parent="1" vertex="1">
                    <mxGeometry x="550" y="120" width="20" height="40" as="geometry"/>
                </mxCell>
                <mxCell id="RJLhyDWeyRnSUKUD2GIx-9" value="" style="rounded=0;whiteSpace=wrap;html=1;fillColor=#0050ef;fontColor=#ffffff;strokeColor=#001DBC;" parent="1" vertex="1">
                    <mxGeometry x="620" y="120" width="20" height="40" as="geometry"/>
                </mxCell>
                <mxCell id="RJLhyDWeyRnSUKUD2GIx-10" value="" style="rounded=0;whiteSpace=wrap;html=1;fillColor=#0050ef;fontColor=#ffffff;strokeColor=#001DBC;" parent="1" vertex="1">
                    <mxGeometry x="380" y="280" width="230" height="40" as="geometry"/>
                </mxCell>
                <mxCell id="RJLhyDWeyRnSUKUD2GIx-12" value="WeekdaysRestriction + NoHolidaysRestriction + SomeEventRestriction" style="text;html=1;align=right;verticalAlign=middle;whiteSpace=wrap;rounded=0;spacingRight=10;" parent="1" vertex="1">
                    <mxGeometry x="120" y="320" width="160" height="40" as="geometry"/>
                </mxCell>
                <mxCell id="RJLhyDWeyRnSUKUD2GIx-13" value="" style="rounded=0;whiteSpace=wrap;html=1;fillColor=#0050ef;fontColor=#ffffff;strokeColor=#001DBC;" parent="1" vertex="1">
                    <mxGeometry x="390" y="320" width="20" height="40" as="geometry"/>
                </mxCell>
                <mxCell id="RJLhyDWeyRnSUKUD2GIx-14" value="" style="rounded=0;whiteSpace=wrap;html=1;fillColor=#0050ef;fontColor=#ffffff;strokeColor=#001DBC;" parent="1" vertex="1">
                    <mxGeometry x="430" y="320" width="50" height="40" as="geometry"/>
                </mxCell>
                <mxCell id="RJLhyDWeyRnSUKUD2GIx-15" value="" style="rounded=0;whiteSpace=wrap;html=1;fillColor=#0050ef;fontColor=#ffffff;strokeColor=#001DBC;" parent="1" vertex="1">
                    <mxGeometry x="500" y="320" width="50" height="40" as="geometry"/>
                </mxCell>
                <mxCell id="RJLhyDWeyRnSUKUD2GIx-16" value="" style="rounded=0;whiteSpace=wrap;html=1;fillColor=#0050ef;fontColor=#ffffff;strokeColor=#001DBC;" parent="1" vertex="1">
                    <mxGeometry x="570" y="320" width="10" height="40" as="geometry"/>
                </mxCell>
                <mxCell id="RJLhyDWeyRnSUKUD2GIx-23" value="" style="rounded=0;whiteSpace=wrap;html=1;fillColor=#0050ef;fontColor=#ffffff;strokeColor=#001DBC;" parent="1" vertex="1">
                    <mxGeometry x="380" y="200" width="10" height="40" as="geometry"/>
                </mxCell>
                <mxCell id="RJLhyDWeyRnSUKUD2GIx-25" value="" style="rounded=0;whiteSpace=wrap;html=1;fillColor=#0050ef;fontColor=#ffffff;strokeColor=#001DBC;" parent="1" vertex="1">
                    <mxGeometry x="580" y="200" width="10" height="40" as="geometry"/>
                </mxCell>
                <mxCell id="RJLhyDWeyRnSUKUD2GIx-27" value="" style="rounded=0;whiteSpace=wrap;html=1;fillColor=#0050ef;fontColor=#ffffff;strokeColor=#001DBC;" parent="1" vertex="1">
                    <mxGeometry x="590" y="320" width="20" height="40" as="geometry"/>
                </mxCell>
                <mxCell id="RJLhyDWeyRnSUKUD2GIx-45" value="B" style="endArrow=none;html=1;rounded=0;exitX=0.5;exitY=1;exitDx=0;exitDy=0;" parent="1" edge="1">
                    <mxGeometry width="50" height="50" relative="1" as="geometry">
                        <mxPoint x="560" y="360" as="sourcePoint"/>
                        <mxPoint x="560" y="400" as="targetPoint"/>
                    </mxGeometry>
                </mxCell>
                <mxCell id="RJLhyDWeyRnSUKUD2GIx-49" value="" style="rounded=0;whiteSpace=wrap;html=1;fillColor=#60a917;fontColor=#ffffff;strokeColor=#2D7600;" parent="1" vertex="1">
                    <mxGeometry x="280" y="400" width="10" height="40" as="geometry"/>
                </mxCell>
                <mxCell id="RJLhyDWeyRnSUKUD2GIx-50" value="" style="rounded=0;whiteSpace=wrap;html=1;fillColor=#60a917;fontColor=#ffffff;strokeColor=#2D7600;" parent="1" vertex="1">
                    <mxGeometry x="340" y="400" width="50" height="40" as="geometry"/>
                </mxCell>
                <mxCell id="RJLhyDWeyRnSUKUD2GIx-51" value="" style="rounded=0;whiteSpace=wrap;html=1;fillColor=#60a917;fontColor=#ffffff;strokeColor=#2D7600;" parent="1" vertex="1">
                    <mxGeometry x="290" y="400" width="50" height="40" as="geometry"/>
                </mxCell>
                <mxCell id="RJLhyDWeyRnSUKUD2GIx-53" value="WeekdaysRestriction" style="text;html=1;align=right;verticalAlign=middle;whiteSpace=wrap;rounded=0;spacingRight=10;" parent="1" vertex="1">
                    <mxGeometry x="120" y="160" width="160" height="40" as="geometry"/>
                </mxCell>
                <mxCell id="RJLhyDWeyRnSUKUD2GIx-54" value="" style="rounded=0;whiteSpace=wrap;html=1;fillColor=#0050ef;fontColor=#ffffff;strokeColor=#001DBC;" parent="1" vertex="1">
                    <mxGeometry x="290" y="160" width="50" height="40" as="geometry"/>
                </mxCell>
                <mxCell id="RJLhyDWeyRnSUKUD2GIx-55" value="" style="rounded=0;whiteSpace=wrap;html=1;fillColor=#0050ef;fontColor=#ffffff;strokeColor=#001DBC;" parent="1" vertex="1">
                    <mxGeometry x="360" y="160" width="50" height="40" as="geometry"/>
                </mxCell>
                <mxCell id="RJLhyDWeyRnSUKUD2GIx-56" value="" style="rounded=0;whiteSpace=wrap;html=1;fillColor=#0050ef;fontColor=#ffffff;strokeColor=#001DBC;" parent="1" vertex="1">
                    <mxGeometry x="430" y="160" width="50" height="40" as="geometry"/>
                </mxCell>
                <mxCell id="RJLhyDWeyRnSUKUD2GIx-57" value="" style="rounded=0;whiteSpace=wrap;html=1;fillColor=#0050ef;fontColor=#ffffff;strokeColor=#001DBC;" parent="1" vertex="1">
                    <mxGeometry x="500" y="160" width="50" height="40" as="geometry"/>
                </mxCell>
                <mxCell id="RJLhyDWeyRnSUKUD2GIx-58" value="" style="rounded=0;whiteSpace=wrap;html=1;fillColor=#0050ef;fontColor=#ffffff;strokeColor=#001DBC;" parent="1" vertex="1">
                    <mxGeometry x="570" y="160" width="50" height="40" as="geometry"/>
                </mxCell>
                <mxCell id="RJLhyDWeyRnSUKUD2GIx-61" value="" style="rounded=0;whiteSpace=wrap;html=1;fillColor=#0050ef;fontColor=#ffffff;strokeColor=#001DBC;" parent="1" vertex="1">
                    <mxGeometry x="280" y="240" width="100" height="40" as="geometry"/>
                </mxCell>
                <mxCell id="RJLhyDWeyRnSUKUD2GIx-62" value="" style="rounded=0;whiteSpace=wrap;html=1;fillColor=#0050ef;fontColor=#ffffff;strokeColor=#001DBC;" parent="1" vertex="1">
                    <mxGeometry x="390" y="240" width="190" height="40" as="geometry"/>
                </mxCell>
                <mxCell id="RJLhyDWeyRnSUKUD2GIx-63" value="" style="rounded=0;whiteSpace=wrap;html=1;fillColor=#0050ef;fontColor=#ffffff;strokeColor=#001DBC;" parent="1" vertex="1">
                    <mxGeometry x="590" y="240" width="50" height="40" as="geometry"/>
                </mxCell>
                <mxCell id="2" value="A" style="endArrow=none;html=1;entryX=0.5;entryY=1;entryDx=0;entryDy=0;" parent="1" target="RJLhyDWeyRnSUKUD2GIx-13" edge="1">
                    <mxGeometry width="50" height="50" relative="1" as="geometry">
                        <mxPoint x="400" y="400" as="sourcePoint"/>
                        <mxPoint x="420" y="370" as="targetPoint"/>
                    </mxGeometry>
                </mxCell>
                <mxCell id="5" value="HolidaysRestriction" style="text;html=1;strokeColor=none;fillColor=none;align=right;verticalAlign=middle;whiteSpace=wrap;rounded=0;spacingRight=10;" vertex="1" parent="1">
                    <mxGeometry x="120" y="200" width="160" height="40" as="geometry"/>
                </mxCell>
                <mxCell id="6" value="NoHolidaysRestriction" style="text;html=1;strokeColor=none;fillColor=none;align=right;verticalAlign=middle;whiteSpace=wrap;rounded=0;spacingRight=10;" vertex="1" parent="1">
                    <mxGeometry x="120" y="240" width="160" height="40" as="geometry"/>
                </mxCell>
                <mxCell id="7" value="SomeEventRestriction" style="text;html=1;strokeColor=none;fillColor=none;align=right;verticalAlign=middle;whiteSpace=wrap;rounded=0;spacingRight=10;" vertex="1" parent="1">
                    <mxGeometry x="120" y="280" width="160" height="40" as="geometry"/>
                </mxCell>
                <mxCell id="8" value="Duration between A and B" style="text;html=1;strokeColor=none;fillColor=none;align=right;verticalAlign=middle;whiteSpace=wrap;rounded=0;spacingRight=10;" vertex="1" parent="1">
                    <mxGeometry x="120" y="400" width="160" height="40" as="geometry"/>
                </mxCell>
            </root>
        </mxGraphModel>
    </diagram>
</mxfile>